HIERARCHY
ROOT pelvis
{
  OFFSET 0 100 0
  CHANNELS 6 Xposition Yposition Zposition Zrotation Xrotation Yrotation
  JOINT pelvis_right_femur
  {
    OFFSET -10.78128 -3.44521 -0.5502486
    CHANNELS 3 Zrotation Xrotation Yrotation
    JOINT right_femur_tibia
    {
      OFFSET -0.8047443 -44.0398 -0.1307829
      CHANNELS 3 Zrotation Xrotation Yrotation
      JOINT right_tibia_foot
      {
        OFFSET 3.006224 -47.83518 -5
        CHANNELS 3 Zrotation Xrotation Yrotation
        End Site
        {
          OFFSET 0 -5 15
        }
      }
    }
  }
  JOINT pelvis_left_femur
  {
    OFFSET 10.78128 -3.44521 -0.5502486
    CHANNELS 3 Zrotation Xrotation Yrotation
    JOINT left_femur_tibia
    {
      OFFSET 0.8047443 -44.0398 -0.1307829
      CHANNELS 3 Zrotation Xrotation Yrotation
      JOINT left_tibia_foot
      {
        OFFSET -4.370144 -48.10324 -4.275266
        CHANNELS 3 Zrotation Xrotation Yrotation
        End Site
        {
          OFFSET 0 -5 15
        }
      }
    }
  }
  JOINT pelvis_spine1
  {
    OFFSET 0 6.468898 -3.129235
    CHANNELS 3 Zrotation Xrotation Yrotation
    JOINT spine1
    {
      OFFSET 0 23.15396 4.99043
      CHANNELS 3 Zrotation Xrotation Yrotation
      JOINT spine2
      {
        OFFSET 0 20.79997 -5.064912
        CHANNELS 3 Zrotation Xrotation Yrotation
        JOINT neck
        {
          OFFSET 0 14.38658 9.616178
          CHANNELS 3 Zrotation Xrotation Yrotation
          End Site
          {
            OFFSET 0 20 0
          }
        }
      }
      JOINT right_manubrium
      {
        OFFSET -5.722621 16.35077 3.967754
        CHANNELS 3 Zrotation Xrotation Yrotation
        JOINT right_clavicle
        {
          OFFSET -13.16364 1.694482 -4.693211
          CHANNELS 3 Zrotation Xrotation Yrotation
          JOINT right_humerus
          {
            OFFSET -28.5034 -0.3100689 -2.792744
            CHANNELS 3 Zrotation Xrotation Yrotation
            JOINT right_radius
            {
              OFFSET -25.15693 0.02248979 -1.271978
              CHANNELS 3 Zrotation Xrotation Yrotation
              End Site
              {
                OFFSET -15 0 0
              }
            }
          }
        }
      }
      JOINT left_manubrium
      {
        OFFSET 5.722621 16.35077 3.967754
        CHANNELS 3 Zrotation Xrotation Yrotation
        JOINT left_clavicle
        {
          OFFSET 13.16364 1.694482 -4.693211
          CHANNELS 3 Zrotation Xrotation Yrotation
          JOINT left_humerus
          {
            OFFSET 29.39168 -1.063119 -2.237045
            CHANNELS 3 Zrotation Xrotation Yrotation
            JOINT left_radius
            {
              OFFSET 24.59957 -0.9528479 0.9047498
              CHANNELS 3 Zrotation Xrotation Yrotation
              End Site
              {
                OFFSET 15 -0 -0
              }
            }
          }
        }
      }
    }
  }
}
MOTION
Frames: 16
Frame Time: 0.0416666666667
292.5354 116.7052 245.8419 -22.7496 23.86602 85.87446 -117.274 34.77136 137.3705 -0 9.979877 -0 151.6048 -41.50847 123.777 165.9612 -19.32984 166.1572 -0 54.8397 -0 -3.180013 58.36377 6.626258 -7.36185 -17.62036 43.58465 -4.390757 10.91152 0.7630925 -7.946812 -2.438216 8.404386 8.276385 13.18756 -4.815844 52.63456 -27.4499 26.43961 -66.17108 43.10096 114.6321 -0 0 88.0324 -82.00304 55.91349 83.33322 -10.18239 3.765877 17.2347 -104.794 9.097448 89.17143 0 0 -50.67007 10.32859 -56.134 91.68861
303.0548 116.6787 241.3358 -24.02743 22.57793 89.11432 -117.274 34.77136 137.3705 -0 9.979877 -0 151.6048 -41.50847 123.777 165.9612 -19.32984 166.1572 -0 54.8397 -0 -3.180013 58.36377 6.626258 -7.36185 -17.62036 43.58465 -4.390757 10.91152 0.7630925 -7.946812 -2.438216 8.404386 8.276385 13.18756 -4.815844 52.63456 -27.4499 26.43961 -66.17108 43.10096 114.6321 -0 0 88.0324 -82.00304 55.91349 83.33322 -10.18239 3.765877 17.2347 -104.794 9.097448 89.17143 0 0 -50.67007 10.32859 -56.134 91.68861
313.3024 116.6523 236.2417 -25.21338 21.22613 92.29272 -117.274 34.77136 137.3705 -0 9.979877 -0 151.6048 -41.50847 123.777 165.9612 -19.32984 166.1572 -0 54.8397 -0 -3.180013 58.36377 6.626258 -7.36185 -17.62036 43.58465 -4.390757 10.91152 0.7630925 -7.946812 -2.438216 8.404386 8.276385 13.18756 -4.815844 52.63456 -27.4499 26.43961 -66.17108 43.10096 114.6321 -0 0 88.0324 -82.00304 55.91349 83.33322 -10.18239 3.765877 17.2347 -104.794 9.097448 89.17143 0 0 -50.67007 10.32859 -56.134 91.68861
323.2453 116.6258 230.5758 -26.30723 19.81593 95.41219 -117.274 34.77136 137.3705 -0 9.979877 -0 151.6048 -41.50847 123.777 165.9612 -19.32984 166.1572 -0 54.8397 -0 -3.180013 58.36377 6.626258 -7.36185 -17.62036 43.58465 -4.390757 10.91152 0.7630925 -7.946812 -2.438216 8.404386 8.276385 13.18756 -4.815844 52.63456 -27.4499 26.43961 -66.17108 43.10096 114.6321 -0 0 88.0324 -82.00304 55.91349 83.33322 -10.18239 3.765877 17.2347 -104.794 9.097448 89.17143 0 0 -50.67007 10.32859 -56.134 91.68861
332.8516 116.5994 224.3564 -27.3092 18.35253 98.47579 -117.274 34.77136 137.3705 -0 9.979877 -0 151.6048 -41.50847 123.777 165.9612 -19.32984 166.1572 -0 54.8397 -0 -3.180013 58.36377 6.626258 -7.36185 -17.62036 43.58465 -4.390757 10.91152 0.7630925 -7.946812 -2.438216 8.404386 8.276385 13.18756 -4.815844 52.63456 -27.4499 26.43961 -66.17108 43.10096 114.6321 -0 0 88.0324 -82.00304 55.91349 83.33322 -10.18239 3.765877 17.2347 -104.794 9.097448 89.17143 0 0 -50.67007 10.32859 -56.134 91.68861
342.0907 116.5729 217.6034 -28.21983 16.84103 101.4871 -117.274 34.77136 137.3705 -0 9.979877 -0 151.6048 -41.50847 123.777 165.9612 -19.32984 166.1572 -0 54.8397 -0 -3.180013 58.36377 6.626258 -7.36185 -17.62036 43.58465 -4.390757 10.91152 0.7630925 -7.946812 -2.438216 8.404386 8.276385 13.18756 -4.815844 52.63456 -27.4499 26.43961 -66.17108 43.10096 114.6321 -0 0 88.0324 -82.00304 55.91349 83.33322 -10.18239 3.765877 17.2347 -104.794 9.097448 89.17143 0 0 -50.67007 10.32859 -56.134 91.68861
350.9327 116.5465 210.3384 -29.03993 15.28634 104.45 -117.274 34.77136 137.3705 -0 9.979877 -0 151.6048 -41.50847 123.777 165.9612 -19.32984 166.1572 -0 54.8397 -0 -3.180013 58.36377 6.626258 -7.36185 -17.62036 43.58465 -4.390757 10.91152 0.7630925 -7.946812 -2.438216 8.404386 8.276385 13.18756 -4.815844 52.63456 -27.4499 26.43961 -66.17108 43.10096 114.6321 -0 0 88.0324 -82.00304 55.91349 83.33322 -10.18239 3.765877 17.2347 -104.794 9.097448 89.17143 0 0 -50.67007 10.32859 -56.134 91.68861
359.3496 116.5201 202.5846 -29.77045 13.69328 107.3688 -117.274 34.77136 137.3705 -0 9.979877 -0 151.6048 -41.50847 123.777 165.9612 -19.32984 166.1572 -0 54.8397 -0 -3.180013 58.36377 6.626258 -7.36185 -17.62036 43.58465 -4.390757 10.91152 0.7630925 -7.946812 -2.438216 8.404386 8.276385 13.18756 -4.815844 52.63456 -27.4499 26.43961 -66.17108 43.10096 114.6321 -0 0 88.0324 -82.00304 55.91349 83.33322 -10.18239 3.765877 17.2347 -104.794 9.097448 89.17143 0 0 -50.67007 10.32859 -56.134 91.68861
367.3141 116.4936 194.367 -30.41242 12.06649 110.2479 -117.274 34.77136 137.3705 -0 9.979877 -0 151.6048 -41.50847 123.777 165.9612 -19.32984 166.1572 -0 54.8397 -0 -3.180013 58.36377 6.626258 -7.36185 -17.62036 43.58465 -4.390757 10.91152 0.7630925 -7.946812 -2.438216 8.404386 8.276385 13.18756 -4.815844 52.63456 -27.4499 26.43961 -66.17108 43.10096 114.6321 -0 0 88.0324 -82.00304 55.91349 83.33322 -10.18239 3.765877 17.2347 -104.794 9.097448 89.17143 0 0 -50.67007 10.32859 -56.134 91.68861
374.8009 116.4672 185.7119 -30.96687 10.41048 113.0919 -117.274 34.77136 137.3705 -0 9.979877 -0 151.6048 -41.50847 123.777 165.9612 -19.32984 166.1572 -0 54.8397 -0 -3.180013 58.36377 6.626258 -7.36185 -17.62036 43.58465 -4.390757 10.91152 0.7630925 -7.946812 -2.438216 8.404386 8.276385 13.18756 -4.815844 52.63456 -27.4499 26.43961 -66.17108 43.10096 114.6321 -0 0 88.0324 -82.00304 55.91349 83.33322 -10.18239 3.765877 17.2347 -104.794 9.097448 89.17143 0 0 -50.67007 10.32859 -56.134 91.68861
381.786 116.4407 176.647 -31.43481 8.729661 115.9057 -117.274 34.77136 137.3705 -0 9.979877 -0 151.6048 -41.50847 123.777 165.9612 -19.32984 166.1572 -0 54.8397 -0 -3.180013 58.36377 6.626258 -7.36185 -17.62036 43.58465 -4.390757 10.91152 0.7630925 -7.946812 -2.438216 8.404386 8.276385 13.18756 -4.815844 52.63456 -27.4499 26.43961 -66.17108 43.10096 114.6321 -0 0 88.0324 -82.00304 55.91349 83.33322 -10.18239 3.765877 17.2347 -104.794 9.097448 89.17143 0 0 -50.67007 10.32859 -56.134 91.68861
388.2469 116.4143 167.2014 -31.81716 7.0283 118.6941 -117.274 34.77136 137.3705 -0 9.979877 -0 151.6048 -41.50847 123.777 165.9612 -19.32984 166.1572 -0 54.8397 -0 -3.180013 58.36377 6.626258 -7.36185 -17.62036 43.58465 -4.390757 10.91152 0.7630925 -7.946812 -2.438216 8.404386 8.276385 13.18756 -4.815844 52.63456 -27.4499 26.43961 -66.17108 43.10096 114.6321 -0 0 88.0324 -82.00304 55.91349 83.33322 -10.18239 3.765877 17.2347 -104.794 9.097448 89.17143 0 0 -50.67007 10.32859 -56.134 91.68861
394.1629 116.3879 157.4053 -32.11472 5.310583 121.462 -117.274 34.77136 137.3705 -0 9.979877 -0 151.6048 -41.50847 123.777 165.9612 -19.32984 166.1572 -0 54.8397 -0 -3.180013 58.36377 6.626258 -7.36185 -17.62036 43.58465 -4.390757 10.91152 0.7630925 -7.946812 -2.438216 8.404386 8.276385 13.18756 -4.815844 52.63456 -27.4499 26.43961 -66.17108 43.10096 114.6321 -0 0 88.0324 -82.00304 55.91349 83.33322 -10.18239 3.765877 17.2347 -104.794 9.097448 89.17143 0 0 -50.67007 10.32859 -56.134 91.68861
399.5152 116.3614 147.2901 -32.32814 3.580614 124.2145 -117.274 34.77136 137.3705 -0 9.979877 -0 151.6048 -41.50847 123.777 165.9612 -19.32984 166.1572 -0 54.8397 -0 -3.180013 58.36377 6.626258 -7.36185 -17.62036 43.58465 -4.390757 10.91152 0.7630925 -7.946812 -2.438216 8.404386 8.276385 13.18756 -4.815844 52.63456 -27.4499 26.43961 -66.17108 43.10096 114.6321 -0 0 88.0324 -82.00304 55.91349 83.33322 -10.18239 3.765877 17.2347 -104.794 9.097448 89.17143 0 0 -50.67007 10.32859 -56.134 91.68861
404.2864 116.335 136.8882 -32.4579 1.842436 126.9567 -117.274 34.77136 137.3705 -0 9.979877 -0 151.6048 -41.50847 123.777 165.9612 -19.32984 166.1572 -0 54.8397 -0 -3.180013 58.36377 6.626258 -7.36185 -17.62036 43.58465 -4.390757 10.91152 0.7630925 -7.946812 -2.438216 8.404386 8.276385 13.18756 -4.815844 52.63456 -27.4499 26.43961 -66.17108 43.10096 114.6321 -0 0 88.0324 -82.00304 55.91349 83.33322 -10.18239 3.765877 17.2347 -104.794 9.097448 89.17143 0 0 -50.67007 10.32859 -56.134 91.68861
408.4614 116.3085 126.2331 -32.50431 0.100049 129.6934 -117.274 34.77136 137.3705 -0 9.979877 -0 151.6048 -41.50847 123.777 165.9612 -19.32984 166.1572 -0 54.8397 -0 -3.180013 58.36377 6.626258 -7.36185 -17.62036 43.58465 -4.390757 10.91152 0.7630925 -7.946812 -2.438216 8.404386 8.276385 13.18756 -4.815844 52.63456 -27.4499 26.43961 -66.17108 43.10096 114.6321 -0 0 88.0324 -82.00304 55.91349 83.33322 -10.18239 3.765877 17.2347 -104.794 9.097448 89.17143 0 0 -50.67007 10.32859 -56.134 91.68861
